<?xml version="1.0" encoding="iso-8859-1"?>
<!-- Generator: Adobe Illustrator 16.0.0, SVG Export Plug-In . SVG Version: 6.00 Build 0)  -->
<!DOCTYPE svg PUBLIC "-//W3C//DTD SVG 1.1//EN" "http://www.w3.org/Graphics/SVG/1.1/DTD/svg11.dtd">
<svg version="1.1" id="Layer_1" xmlns="http://www.w3.org/2000/svg" xmlns:xlink="http://www.w3.org/1999/xlink" x="0px" y="0px"
	 width="120px" height="50px" viewBox="0 0 120 50" style="enable-background:new 0 0 120 50;" xml:space="preserve">
<g>
	<path style="fill:#5613F1;" d="M8.556,17.962H5.795v-4.457h16.104v4.457h-2.76l0.719,4.716h4.198v-9.173h5.751v24.328h-5.751
		V27.566h-3.451l1.582,10.267h-5.895l-2.444-19.325l-2.444,19.325H5.507L8.556,17.962z"/>
	<path style="fill:#5613F1;" d="M43.178,26.934c0.211-1.359,0.407-2.832,0.589-4.414s0.321-3.072,0.417-4.472H33.976v-4.543h16.391
		c-0.096,2.377-0.235,4.687-0.417,6.93c-0.182,2.243-0.427,4.41-0.733,6.499H43.178z M39.871,28.43v4.975l7.189-0.028
		c1.878-0.019,3.776-0.097,5.693-0.229c1.916-0.133,3.709-0.334,5.377-0.604v5.292H34.12v-9.403h5.751V28.43z M52.236,13.505h5.752
		v16.851h-5.752V13.505z"/>
	<path style="fill:#5613F1;" d="M62.301,20.119c0-0.997,0.163-1.921,0.489-2.775c0.325-0.853,0.819-1.582,1.479-2.186
		c0.662-0.604,1.5-1.078,2.518-1.423c1.016-0.345,2.204-0.518,3.564-0.518c1.361,0,2.551,0.172,3.566,0.518
		c1.016,0.345,1.854,0.819,2.516,1.423s1.155,1.333,1.481,2.186c0.325,0.854,0.487,1.778,0.487,2.775v2.56h2.015v-9.173h5.751
		v24.328h-5.751V27.566h-2.015v3.651c0,1.017-0.162,1.946-0.487,2.789c-0.326,0.845-0.819,1.567-1.481,2.171
		c-0.66,0.604-1.5,1.079-2.516,1.424c-1.018,0.346-2.205,0.519-3.566,0.519c-1.36,0-2.55-0.173-3.564-0.519
		c-1.018-0.345-1.854-0.818-2.518-1.424c-0.66-0.604-1.154-1.326-1.479-2.171c-0.326-0.843-0.489-1.772-0.489-2.789V20.119z
		 M70.354,14.137c0,2.109-0.227,3.892-0.677,5.349s-1.03,2.641-1.739,3.551c-0.709,0.911-1.51,1.572-2.4,1.984
		c-0.893,0.413-1.77,0.638-2.631,0.676c0.861,0.039,1.738,0.264,2.631,0.676s1.691,1.068,2.4,1.97s1.289,2.075,1.739,3.522
		s0.677,3.226,0.677,5.335c0-2.109,0.226-3.888,0.676-5.335c0.449-1.447,1.029-2.626,1.74-3.537c0.709-0.91,1.504-1.571,2.387-1.982
		c0.882-0.412,1.754-0.638,2.617-0.677c-0.863-0.039-1.735-0.264-2.617-0.676c-0.883-0.412-1.678-1.069-2.387-1.97
		c-0.711-0.901-1.291-2.08-1.74-3.537C70.579,18.029,70.354,16.247,70.354,14.137z"/>
	<path style="fill:#5613F1;" d="M90.48,13.505h6.355v4.457h-1.869v15.413h1.869v4.458H90.48V13.505z M97.383,13.505h6.213v4.457
		h-1.727v15.413c0.27,0,0.551-0.038,0.849-0.114c0.298-0.077,0.589-0.173,0.878-0.288v4.86h-6.213V13.505z M104.256,13.505h4.572
		v9.461h0.949v-9.461h4.572v24.328h-4.572v-9.979h-0.949v9.979h-4.572V13.505z"/>
</g>
</svg>
